<svg width="24" height="24" viewBox="0 0 24 24" fill="none" xmlns="http://www.w3.org/2000/svg">
    <path d="M15 8C11.996 8 9.55 10.268 9.391 13.123C7.463 13.456 6 15.077 6 17.028C6 19.221 7.848 21 10.125 21H19.875C22.152 21 24 19.221 24 17.028C24 15.077 22.537 13.456 20.609 13.123C20.45 10.268 18.004 8 15 8V8ZM4.101 15.998C1.835 15.984 0 14.213 0 12.028C0 10.077 1.463 8.456 3.391 8.123C3.55 5.268 5.996 3 9 3C11.235 3 13.158 4.258 14.063 6.078C13.361 6.162 12.692 6.339 12.061 6.598C11.526 5.712 10.597 5 9 5C5.128 5 5.172 9.025 5.299 9.822C4.235 9.877 2 10.087 2 12.028C2 13.115 2.953 14 4.125 14H4.859C4.491 14.608 4.229 15.28 4.101 15.998V15.998Z" fill="white"/>
</svg>
